<svg width="9" height="8" viewBox="0 0 9 8" fill="none" xmlns="http://www.w3.org/2000/svg">
<path d="M5.44118 4L8.30476 1.13642C8.56508 0.876095 8.56508 0.455569 8.30476 0.195244C8.04443 -0.0650814 7.6239 -0.0650814 7.36358 0.195244L4.5 3.05882L1.63642 0.195244C1.3761 -0.0650814 0.95557 -0.0650814 0.695244 0.195244C0.434919 0.455569 0.434919 0.876095 0.695244 1.13642L3.55882 4L0.695244 6.86358C0.434919 7.1239 0.434919 7.54443 0.695244 7.80476C0.95557 8.06508 1.3761 8.06508 1.63642 7.80476L4.5 4.94118L7.36358 7.80476C7.6239 8.06508 8.04443 8.06508 8.30476 7.80476C8.56508 7.54443 8.56508 7.1239 8.30476 6.86358L5.44118 4Z" fill="#415DE8"/>
</svg>