<svg width="11" height="15" viewBox="0 0 11 15" fill="none" xmlns="http://www.w3.org/2000/svg">
<path fill-rule="evenodd" clip-rule="evenodd" d="M0.375 0C0.167893 0 0 0.167893 0 0.375V2.625C0 2.83211 0.167893 3 0.375 3H9.92485C10.0954 3 10.2444 2.88496 10.2876 2.72001L10.8769 0.47001C10.9392 0.232331 10.7598 0 10.5141 0H0.375ZM2.76786 15H0.375C0.167893 15 0 14.8321 0 14.625V6.375C0 6.16789 0.167893 6 0.375 6H8.94271C9.1884 6 9.36772 6.23233 9.30547 6.47001L8.71619 8.72001C8.67299 8.88496 8.52394 9 8.35342 9H3.51786C3.31075 9 3.14286 9.16789 3.14286 9.375V14.625C3.14286 14.8321 2.97496 15 2.76786 15Z" fill="#FF5762"/>
</svg>
